#!OML:ASF E:\Steps\Project 1\Capture day 1\Session 2\Subject.ASF
:FULLY-SPECIFIED
:DEGREES
272
root 9.06344 13.7103 32.2728 -138.521 0.209557 180.878
lowerback -5.19438 -0.674441 -2.69457
upperback 1.00454 -0.725219 0.188242
thorax 3.98905 -0.423959 1.6448
lowerneck -0.196376 -5.37218 -0.663323
upperneck -29.7803 -2.67968 6.66155
head -9.16775 -0.283639 2.37636
rclavicle 2.78299e-015 1.59028e-015
rhumerus -50.6507 -22.2313 -58.2596
rradius 17.9112
rwrist 20.1217
rhand -8.51013 -48.5508
rfingers 7.12502
rthumb 17.4179 -77.7904
lclavicle 2.78299e-015 1.59028e-015
lhumerus -50.0313 -11.1865 78.0155
lradius 33.2835
lwrist 3.69763
lhand -23.2344 -17.2249
lfingers 7.12502
lthumb 3.21669 12.7306
rfemur -75.9494 5.39021 19.8959
rtibia 69.7904
rfoot -42.3025 -7.31715
rtoes -31.4728
lfemur -79.61 -3.33821 -15.1651
ltibia 73.7893
lfoot -30.6082 -0.71183
ltoes -35.5551
273
root 9.07412 13.6156 32.2481 -138.96 -0.0177567 181.089
lowerback -4.33011 -0.698106 -2.44692
upperback 1.0936 -0.800733 0.290333
thorax 3.59466 -0.453892 1.613
lowerneck 0.0548337 -5.33182 -0.622188
upperneck -29.9705 -2.63619 6.55105
head -9.28867 -0.259636 2.33631
rclavicle -1.25234e-014 -1.19271e-015
rhumerus -49.9395 -23.6855 -57.7671
rradius 17.3121
rwrist 21.4532
rhand -8.68257 -48.9408
rfingers 7.12502
rthumb 17.252 -78.195
lclavicle -1.25234e-014 -1.19271e-015
lhumerus -48.9388 -9.90252 77.4304
lradius 32.6777
lwrist 2.94241
lhand -23.7298 -16.66
lfingers 7.12502
lthumb 2.73832 13.3022
rfemur -76.1135 5.61253 20.2918
rtibia 71.2994
rfoot -42.7005 -7.55594
rtoes -31.8106
lfemur -79.9302 -3.1645 -15.0435
ltibia 75.4306
lfoot -30.9389 -0.570171
ltoes -35.711
274
root 9.08068 13.52 32.2172 -139.154 0.276723 181.154
lowerback -3.73497 -0.626576 -2.58718
upperback 1.02444 -0.712566 0.232804
thorax 3.18452 -0.406349 1.64489
lowerneck 0.098076 -5.37389 -0.916416
upperneck -29.824 -2.69638 6.83879
head -9.22491 -0.300641 2.49166
rclavicle 1.59028e-015 4.37326e-015
rhumerus -49.5294 -25.4117 -57.0382
rradius 16.8018
rwrist 23.0473
rhand -8.79778 -48.9904
rfingers 7.12502
rthumb 17.1411 -78.2543
lclavicle 1.59028e-015 4.37326e-015
lhumerus -47.8433 -8.51452 76.7471
lradius 31.9774
lwrist 1.98317
lhand -24.0634 -16.7708
lfingers 7.12502
lthumb 2.41614 13.1953
rfemur -76.4331 6.10107 20.173
rtibia 72.5038
rfoot -43.0052 -7.89077
rtoes -32.5685
lfemur -80.2462 -2.84299 -15.3061
ltibia 76.8203
lfoot -31.2651 -1.66332
ltoes -30.055
275
root 9.07599 13.4381 32.1862 -139.152 0.657614 180.739
lowerback -4.33538 -0.650745 -2.87254
upperback 1.53644 -0.681905 -0.133606
thorax 4.05186 -0.405886 1.4206
lowerneck 0.970142 -5.5289 -0.393961
upperneck -31.096 -2.66741 6.80543
head -9.87544 -0.282594 2.42354
rclavicle -1.55052e-014 -5.1684e-015
rhumerus -48.5262 -28.4762 -56.3623
rradius 16.1401
rwrist 25.5491
rhand -9.10362 -48.4275
rfingers 7.12502
rthumb 16.8467 -77.7167
lclavicle -1.55052e-014 -5.1684e-015
lhumerus -45.6041 -7.18702 75.8774
lradius 31.2346
lwrist 1.35706
lhand -24.3916 -16.1493
lfingers 7.12502
lthumb 2.09917 13.8201
rfemur -77.2744 5.82192 19.8535
rtibia 74.2228
rfoot -43.5753 -8.1345
rtoes -33.5177
lfemur -80.5547 -3.0773 -15.9433
ltibia 77.9207
lfoot -31.5812 -2.68172
ltoes -24.9992
276
root 9.06566 13.3547 32.1592 -139.473 0.349983 180.917
lowerback -3.80833 -0.662325 -2.32683
upperback 1.56705 -0.745723 -0.0999577
thorax 3.78045 -0.421874 1.14961
lowerneck 1.35448 -5.4763 -0.666277
upperneck -31.465 -2.47613 7.11249
head -10.0807 -0.181186 2.57871
rclavicle 3.97569e-015 1.19271e-015
rhumerus -47.7769 -29.9051 -56.3193
rradius 15.8406
rwrist 26.6047
rhand -9.48561 -48.226
rfingers 7.12502
rthumb 16.4789 -77.5461
lclavicle 3.97569e-015 1.19271e-015
lhumerus -44.2067 -5.76966 75.3788
lradius 30.4736
lwrist 0.548219
lhand -25.1354 -16.265
lfingers 7.12502
lthumb 1.38078 13.7103
rfemur -77.2058 5.82975 20.3154
rtibia 75.109
rfoot -43.7507 -8.70151
rtoes -34.7963
lfemur -80.7689 -3.33429 -15.6407
ltibia 79.2216
lfoot -31.7709 -2.72741
ltoes -24.2015
277
root 9.06445 13.2814 32.1212 -139.464 0.57295 180.634
lowerback -3.68885 -0.656028 -2.61416
upperback 1.46221 -0.720454 -0.237404
thorax 3.60579 -0.410677 1.17279
lowerneck 1.34882 -5.46937 -0.572856
upperneck -31.3813 -2.48756 7.06031
head -10.0516 -0.1995 2.54377
rclavicle -7.55382e-015 -1.19271e-014
rhumerus -46.579 -30.1332 -57.4901
rradius 15.8429
rwrist 25.9692
rhand -10.0209 -48.2969
rfingers 7.12502
rthumb 15.9635 -77.6591
lclavicle -7.55382e-015 -1.19271e-014
lhumerus -42.7768 -4.25383 74.838
lradius 29.9464
lwrist 0.337724
lhand -25.6913 -16.2643
lfingers 7.12502
lthumb 0.843867 13.7137
rfemur -78.0517 6.37113 19.6145
rtibia 76.8436
rfoot -44.1552 -9.50797
rtoes -34.976
lfemur -81.1304 -3.51929 -16.0062
ltibia 80.3079
lfoot -31.8732 -2.82625
ltoes -23.8144
278
root 9.06106 13.224 32.0704 -139.634 1.14222 180.105
lowerback -3.469 -0.621409 -3.37441
upperback 1.41792 -0.630626 -0.448354
thorax 3.44007 -0.374814 1.39003
lowerneck 1.34384 -5.35885 -0.495907
upperneck -31.5124 -2.32849 6.84399
head -10.1149 -0.0964014 2.4405
rclavicle 1.98785e-015 1.19271e-015
rhumerus -45.1294 -29.8193 -59.1419
rradius 16.0921
rwrist 24.4945
rhand -10.5664 -48.3298
rfingers 7.12502
rthumb 15.4382 -77.7332
lclavicle 1.98785e-015 1.19271e-015
lhumerus -41.2473 -2.65105 74.394
lradius 29.368
lwrist 0.0332194
lhand -26.0694 -16.3617
lfingers 7.12502
lthumb 0.478687 13.6175
rfemur -77.8968 5.98516 19.1176
rtibia 77.3042
rfoot -44.0874 -9.29724
rtoes -34.7603
lfemur -81.0249 -3.7653 -16.7653
ltibia 81.1104
lfoot -32.1009 -2.98507
ltoes -24.234
279
root 9.05964 13.1635 32.0256 -140.076 1.02375 180.129
lowerback -2.89059 -0.624463 -3.13233
upperback 1.34037 -0.66723 -0.52561
thorax 3.03091 -0.380012 1.1789
lowerneck 1.06151 -5.69697 -0.36808
upperneck -30.6652 -2.94441 7.12582
head -9.71295 -0.496879 2.55313
rclavicle 1.59028e-015 -1.35174e-014
rhumerus -43.8263 -29.8003 -60.6765
rradius 16.3718
rwrist 23.3888
rhand -10.8762 -48.7265
rfingers 7.12502
rthumb 15.1398 -78.1527
lclavicle 1.59028e-015 -1.35174e-014
lhumerus -39.8899 -1.41139 74.0448
lradius 28.8183
lwrist -0.27903
lhand -26.9041 -16.6212
lfingers 7.12502
lthumb -0.327435 13.3583
rfemur -77.8214 6.02596 19.2523
rtibia 78.6114
rfoot -44.4986 -9.24939
rtoes -34.2963
lfemur -80.8592 -4.07144 -16.6013
ltibia 82.1377
lfoot -32.2199 -3.08714
ltoes -24.8687
280
root 9.0604 13.1164 31.979 -140.533 0.886438 180.028
lowerback -2.40339 -0.675434 -3.057
upperback 1.26942 -0.7561 -0.568098
thorax 2.68534 -0.41658 1.09423
lowerneck 0.641315 -5.63241 0.498951
upperneck -30.2346 -3.03366 6.32609
head -9.52074 -0.572072 2.11427
rclavicle -8.74653e-015 -1.98785e-015
rhumerus -42.1876 -29.4286 -62.504
rradius 16.6838
rwrist 21.897
rhand -11.2429 -49.3606
rfingers 7.12502
rthumb 14.7865 -78.8131
lclavicle -8.74653e-015 -1.98785e-015
lhumerus -38.5757 -0.384209 74.0185
lradius 28.3662
lwrist -0.524863
lhand -28.3511 -16.6056
lfingers 7.12502
lthumb -1.725 13.3672
rfemur -77.3747 5.96657 19.2859
rtibia 79.0115
rfoot -44.316 -8.69691
rtoes -33.2115
lfemur -80.5987 -4.45532 -16.4958
ltibia 82.9911
lfoot -32.2474 -3.15016
ltoes -25.072
281
root 9.0714 13.0757 31.9358 -141.315 0.520351 180.725
lowerback -0.731242 -0.587129 -2.58895
upperback 0.678906 -0.740538 -0.129002
thorax 1.13691 -0.386677 1.30577
lowerneck 0.152988 -5.39357 0.297673
upperneck -28.9957 -3.01531 6.09318
head -8.97974 -0.601734 2.04448
rclavicle -4.37326e-015 5.96354e-015
rhumerus -41.0292 -26.4943 -64.9389
rradius 17.6743
rwrist 18.4455
rhand -11.695 -49.6846
rfingers 7.12502
rthumb 14.3509 -79.1686
lclavicle -4.37326e-015 5.96354e-015
lhumerus -38.3413 0.342323 74.4995
lradius 28.3592
lwrist -0.491079
lhand -29.4706 -16.364
lfingers 7.12502
lthumb -2.80616 13.5973
rfemur -76.4361 6.53824 20.1693
rtibia 79.3399
rfoot -44.2105 -8.9688
rtoes -33.5402
lfemur -80.0455 -4.23633 -15.5812
ltibia 83.8276
lfoot -32.2848 -3.30171
ltoes -25.345
